<svg xmlns="http://www.w3.org/2000/svg" width="32" height="32" viewBox="0 0 32 32"><g transform="translate(736 -1171.362)"><ellipse cx="-714.496" cy="1182.901" fill="#f4606e" color="#000" overflow="visible" style="isolation:auto;mix-blend-mode:normal" rx="9" ry="9"/><path fill="#f89963" style="isolation:auto;mix-blend-mode:normal" d="m -714.49609,153.53906 a 9,9.0000248 0 0 0 -1.73438,0.17774 9,9.0000248 0 0 1 7.23047,8.82226 9,9.0000248 0 0 1 -7.26562,8.82227 9,9.0000248 0 0 0 1.76953,0.17773 9,9.0000248 0 0 0 9,-9 9,9.0000248 0 0 0 -9,-9 z" color="#000" overflow="visible" transform="translate(0 1020.362)"/><ellipse style="isolation:auto;mix-blend-mode:normal" cx="-725.504" cy="1182.901" fill="#02daa9" color="#000" overflow="visible" rx="9" ry="9"/><circle style="isolation:auto;mix-blend-mode:normal" cx="-720.004" cy="1191.824" r="9" fill="#00a5ff" color="#000" overflow="visible"/><path fill="#00bb84" style="isolation:auto;mix-blend-mode:normal" d="m -725.50391,153.53906 a 9,9.0000248 0 0 0 -9,9 9,9.0000248 0 0 0 9,9 9,9.0000248 0 0 0 1.73438,-0.17773 9,9.0000248 0 0 1 -7.23047,-8.82227 9,9.0000248 0 0 1 7.26562,-8.82226 9,9.0000248 0 0 0 -1.76953,-0.17774 z" color="#000" overflow="visible" transform="translate(0 1020.362)"/><path fill="#0079fd" style="isolation:auto;mix-blend-mode:normal" d="m -728.83008,169.7168 a 9,9 0 0 0 -0.17383,1.74414 9,9 0 0 0 9,9 9,9 0 0 0 9,-9 9,9 0 0 0 -0.17382,-1.7168 9,9 0 0 1 -8.82618,7.25586 9,9 0 0 1 -8.82617,-7.2832 z" color="#000" overflow="visible" transform="translate(0 1020.362)"/><path fill="#fff" style="isolation:auto;mix-blend-mode:normal" d="m -714.49609,153.53906 a 9,9.0000248 0 0 0 -0.76368,0.0371 9,9.0000248 0 0 1 8.25977,8.96289 9,9.0000248 0 0 1 -8.24609,8.96289 9,9.0000248 0 0 0 0.75,0.0371 9,9.0000248 0 0 0 9,-9 9,9.0000248 0 0 0 -9,-9 z" color="#000" overflow="visible" transform="translate(0 1020.362)"/><path fill="#fe2b70" d="m -720.85178,1183.3675 a 8.5,8.5000238 0 0 0 -1.79687,0.3867 8.5,8.5000238 0 0 1 1.79687,-0.3867 z m 2.15235,0.061 a 8.5,8.5000238 0 0 1 0.81836,0.1719 8.5,8.5000238 0 0 0 -0.81836,-0.1719 z m 0.81836,0.1719 a 8.5,8.5000238 0 0 1 0.81054,0.2539 8.5,8.5000238 0 0 0 -0.81054,-0.2539 z m 0.81054,0.2539 a 8.5,8.5000238 0 0 1 -2.92382,5.5059 8.5,8.5000238 0 0 0 5.49804,2.041 8.5,8.5000238 0 0 0 2.92774,-0.5273 8.5,8.5000238 0 0 0 -5.50196,-7.0196 z" color="#000" overflow="visible" style="isolation:auto;mix-blend-mode:normal"/><path fill="#fff" style="isolation:auto;mix-blend-mode:normal" d="m -725.50391,153.53906 a 9,9.0000248 0 0 0 -9,9 9,9.0000248 0 0 0 9,9 9,9.0000248 0 0 0 0.75391,-0.0371 9,9.0000248 0 0 1 -8.25,-8.96289 9,9.0000248 0 0 1 8.23633,-8.96289 9,9.0000248 0 0 0 -0.74024,-0.0371 z" color="#000" overflow="visible" transform="translate(0 1020.362)"/><path fill="#3ddef0" d="m -720.87261,1183.3233 a 8.5467622,8.5467862 0 0 0 -1.80676,0.3888 8.5467622,8.5467862 0 0 1 1.80676,-0.3888 z m -2.08956,0.4929 a 8.5467622,8.5467862 0 0 0 -0.006,0 8.5467622,8.5467862 0 0 1 0.006,0 z m -0.006,0 a 8.5467622,8.5467862 0 0 0 -5.53811,7.0444 8.5467622,8.5467862 0 0 0 2.95562,0.5381 8.5467622,8.5467862 0 0 0 8.48588,-7.5825 8.5467622,8.5467862 0 0 0 -0.006,0 8.5467622,8.5467862 0 0 1 -2.95169,5.5421 8.5467622,8.5467862 0 0 1 -2.94581,-5.5401 z" color="#000" overflow="visible" style="isolation:auto;mix-blend-mode:normal"/><path fill="#f8e71b" d="m -719.99435,1176.43 a 8.5,8.5000238 0 0 0 -3.00196,6.4707 8.5,8.5000238 0 0 0 0.0606,0.959 8.5,8.5000238 0 0 1 0.006,0 8.5,8.5000238 0 0 1 -0.002,-0.01 8.5,8.5000238 0 0 1 0.28321,-0.096 8.5,8.5000238 0 0 1 1.79687,-0.3867 8.5,8.5000238 0 0 1 0.84766,-0.043 l 0,0 a 8.5,8.5000238 0 0 1 0.45313,0.014 8.5,8.5000238 0 0 1 0.79687,0.084 8.5,8.5000238 0 0 1 0.0488,0.01 8.5,8.5000238 0 0 0 0.002,0 8.5,8.5000238 0 0 1 1.63281,0.4258 8.5,8.5000238 0 0 0 0.0664,-0.9532 8.5,8.5000238 0 0 0 -2.99023,-6.4707 z m 2.92382,7.4238 a 8.5,8.5000238 0 0 1 -2.3164,4.9336 8.5,8.5000238 0 0 0 2.3164,-4.9336 z m -5.86523,0.01 a 8.5,8.5000238 0 0 0 0.35937,1.6602 8.5,8.5000238 0 0 1 -0.35937,-1.6602 z m 0.36133,1.6641 a 8.5,8.5000238 0 0 0 0.29687,0.7832 8.5,8.5000238 0 0 1 -0.29687,-0.7832 z m 0.32226,0.834 a 8.5,8.5000238 0 0 0 0.33594,0.6797 8.5,8.5000238 0 0 1 -0.33594,-0.6797 z m 0.49024,0.9297 a 8.5,8.5000238 0 0 0 0.30078,0.4765 8.5,8.5000238 0 0 1 -0.30078,-0.4765 z m 0.47265,0.7031 a 8.5,8.5000238 0 0 0 0.33985,0.4316 8.5,8.5000238 0 0 1 -0.33985,-0.4316 z m 0.5918,0.7031 a 8.5,8.5000238 0 0 0 0.33789,0.3555 8.5,8.5000238 0 0 1 -0.33789,-0.3555 z" color="#000" overflow="visible" style="isolation:auto;mix-blend-mode:normal"/><path fill="#fff" style="isolation:auto;mix-blend-mode:normal" d="m -711.03906,170.7207 a 9,9 0 0 1 -8.96485,8.2793 9,9 0 0 1 -8.96484,-8.24805 9,9 0 0 0 -0.0352,0.70899 9,9 0 0 0 9,9 9,9 0 0 0 9,-9 9,9 0 0 0 -0.0351,-0.74024 z" color="#000" overflow="visible" transform="translate(0 1020.362)"/><path fill="#fff" style="isolation:auto;mix-blend-mode:normal" d="m -719.99984,1182.7654 a 10.098993,10.099019 0 0 0 -1.00711,0.05 10.098993,10.099019 0 0 0 -2.13489,0.4595 10.098993,10.099019 0 0 0 -0.33649,0.115 10.098993,10.099019 0 0 0 10e-4,0.023 10.098993,10.099019 0 0 0 -0.007,0 10.098993,10.099019 0 0 0 3.48082,6.5462 10.098993,10.099019 0 0 0 3.48777,-6.5533 10.098993,10.099019 0 0 0 -1.93996,-0.5058 10.098993,10.099019 0 0 0 -10e-4,0 10.098993,10.099019 0 0 0 -0.058,0 10.098993,10.099019 0 0 0 -0.94676,-0.101 10.098993,10.099019 0 0 0 -0.53837,-0.023 z" color="#000" overflow="visible"/><path fill="#de1470" d="m -716.30386,1184.1577 c 2.59988,1.2708 4.40025,3.7883 4.73529,6.7026 -0.18384,0.068 -0.37097,0.1259 -0.55859,0.1816 -0.41467,-2.6993 -2.08716,-5.0135 -4.47956,-6.2636 -0.39328,-0.4161 -0.39328,-0.4161 0.30286,-0.6206 z m -3.49909,4.9662 c -0.0762,0.083 -0.15271,0.1658 -0.23242,0.2461 -0.005,0 -0.0107,-0.01 -0.0156,-0.012 0.0121,-0.01 0.0231,-0.021 0.0352,-0.031 0.0746,-0.064 0.14078,-0.1364 0.21289,-0.2031 z m -0.27148,0.2129 c 0.007,0.01 0.0141,0.013 0.0215,0.019 -0.007,-0.01 -0.0145,-0.011 -0.0215,-0.017 l 0,0 z m -0.5,0.5 c 0.007,0.01 0.0145,0.01 0.0215,0.019 -0.007,-0.01 -0.0145,-0.01 -0.0215,-0.019 z" color="#000" overflow="visible" style="isolation:auto;mix-blend-mode:normal"/><path fill="#f9d259" d="m -716.78689,1183.5686 c 0.23111,-2.917 -1.05078,-5.7735 -3.4305,-7.5382 -0.15122,0.125 -0.29456,0.2582 -0.43661,0.393 2.09846,1.6831 3.26315,4.2366 3.18889,6.8903 0.46511,0.049 0.46511,0.049 0.67822,0.2549 z" color="#000" overflow="visible" style="isolation:auto;mix-blend-mode:normal"/><path fill="#30a2f2" style="isolation:auto;mix-blend-mode:normal" d="m -722.96875,163.45312 c -3.02766,1.11461 -5.16863,3.83973 -5.53711,7.04493 0.18384,0.0685 0.37097,0.12599 0.55859,0.18164 0.44887,-2.92187 2.37162,-5.39269 5.08594,-6.55078 -0.0433,-0.22208 -0.0818,-0.44549 -0.10742,-0.67188 l 0,-0.004 z m 2.69727,5.3086 c 0.0762,0.0832 0.15271,0.16575 0.23242,0.24609 0.005,-0.004 0.0107,-0.007 0.0156,-0.0117 -0.0121,-0.01 -0.023,-0.0214 -0.0351,-0.0312 -0.0746,-0.0644 -0.14078,-0.13645 -0.21289,-0.20312 z M -720,168.97461 c -0.007,0.006 -0.0141,0.0132 -0.0215,0.0195 0.007,-0.006 0.0145,-0.0116 0.0215,-0.0176 l 0,-0.002 z m 0.5,0.5 c -0.007,0.006 -0.0145,0.01 -0.0215,0.0195 0.007,-0.006 0.0145,-0.01 0.0215,-0.0195 z" color="#000" overflow="visible" transform="translate(0 1020.362)"/><path fill="none" stroke="#000" stroke-linecap="round" stroke-linejoin="round" d="m -729.00737,1174.608 c 1.07675,-0.4555 2.26057,-0.7073 3.50322,-0.7073 2.4853,0 4.73531,1.0074 6.36399,2.6361 1.62868,1.6287 2.63603,3.8787 2.63601,6.364 -4e-5,4.9706 -4.02945,9 -9,9 -4.97055,0 -8.99996,-4.0294 -9,-9 -10e-6,-1.2427 0.25182,-2.4265 0.70724,-3.5032 0.45542,-1.0768 1.11443,-2.0465 1.92877,-2.8608" color="#000" overflow="visible" style="isolation:auto;mix-blend-mode:normal"/><path fill="none" stroke="#000" stroke-linecap="round" stroke-linejoin="round" d="m -706.20315,1179.3976 c 0.45542,1.0767 0.70725,2.2605 0.70724,3.5032 -4e-5,4.9706 -4.02945,9 -9,9 -4.97055,0 -8.99999,-4.0294 -9,-9 -4e-5,-4.9706 4.02941,-9.0001 9,-9.0001 1.24265,0 2.42647,0.2518 3.50322,0.7073 1.07675,0.4554 2.04643,1.1144 2.86077,1.9288" color="#000" overflow="visible" style="isolation:auto;mix-blend-mode:normal"/><path fill="none" stroke="#000" stroke-linecap="round" stroke-linejoin="round" d="m -720.00415,1200.8237 c -4.97056,0 -9,-4.0294 -9,-9 0,-4.9706 4.02944,-9 9,-9 4.97056,0 9,4.0294 9,9 0,1.2426 -0.25184,2.4265 -0.70726,3.5032 -0.45543,1.0768 -1.11444,2.0464 -1.92878,2.8608 -0.81434,0.8143 -1.78401,1.4733 -2.86075,1.9287" color="#000" overflow="visible" style="isolation:auto;mix-blend-mode:normal"/></g></svg>