<?xml version="1.0"?>
<svg xmlns="http://www.w3.org/2000/svg" height="48" viewBox="0 0 48 48" width="48"><path d="M0 0h48v48h-48z" fill="none"/><path d="M25.99 6c-9.95 0-17.99 8.06-17.99 18h-6l7.79 7.79.14.29 8.07-8.08h-6c0-7.73 6.27-14 14-14s14 6.27 14 14-6.27 14-14 14c-3.87 0-7.36-1.58-9.89-4.11l-2.83 2.83c3.25 3.26 7.74 5.28 12.71 5.28 9.95 0 18.01-8.06 18.01-18s-8.06-18-18.01-18zm-1.99 10v10l8.56 5.08 1.44-2.43-7-4.15v-8.5h-3z"/>
	
	
	<metadata>
		<rdf:RDF xmlns:rdf="http://www.w3.org/1999/02/22-rdf-syntax-ns#" xmlns:rdfs="http://www.w3.org/2000/01/rdf-schema#" xmlns:dc="http://purl.org/dc/elements/1.1/">
			<rdf:Description about="https://iconscout.com/legal#licenses" dc:title="Restore, Backup, Schedule, Reload, Refresh" dc:description="Restore, Backup, Schedule, Reload, Refresh" dc:publisher="Iconscout" dc:date="2016-12-14" dc:format="image/svg+xml" dc:language="en">
				<dc:creator>
					<rdf:Bag>
						<rdf:li>Google Inc.</rdf:li>
					</rdf:Bag>
				</dc:creator>
			</rdf:Description>
		</rdf:RDF>
    </metadata></svg>
