<?xml version="1.0" encoding="utf-8"?>
<!-- Generated by IcoMoon.io -->
<!DOCTYPE svg PUBLIC "-//W3C//DTD SVG 1.1//EN" "http://www.w3.org/Graphics/SVG/1.1/DTD/svg11.dtd">
<svg version="1.1" xmlns="http://www.w3.org/2000/svg" xmlns:xlink="http://www.w3.org/1999/xlink" width="16" height="16" viewBox="0 0 16 16">
	<path d="M13.984 16h-10.984q-0.422 0-0.711-0.289t-0.289-0.711v-13.984q0-0.422 0.289-0.711t0.711-0.289h6v5.5q0 0.203 0.141 0.352t0.359 0.148h5.484v8.984q0 0.422-0.289 0.711t-0.711 0.289zM11.313 10h-1.313v-2.5q0-0.219-0.148-0.359t-0.352-0.141h-2q-0.203 0-0.352 0.141t-0.148 0.359v2.5h-1.359q-0.359 0-0.547 0.414t-0.031 0.586l1.391 1.391t1.328 1.313q0.266 0.281 0.656 0.281t0.656-0.281l2.797-2.703q0.219-0.219 0.016-0.609t-0.594-0.391zM10 0q0.406 0 0.688 0.281l4 4.016q0.297 0.297 0.297 0.719h-4.984v-5.016z" fill="#222222" />
</svg>
