<?xml version="1.0" encoding="UTF-8" standalone="no"?>
<!-- Generated by IcoMoon.io -->

<svg
   xmlns:dc="http://purl.org/dc/elements/1.1/"
   xmlns:cc="http://creativecommons.org/ns#"
   xmlns:rdf="http://www.w3.org/1999/02/22-rdf-syntax-ns#"
   xmlns:svg="http://www.w3.org/2000/svg"
   xmlns="http://www.w3.org/2000/svg"
   xmlns:sodipodi="http://sodipodi.sourceforge.net/DTD/sodipodi-0.dtd"
   xmlns:inkscape="http://www.inkscape.org/namespaces/inkscape"
   version="1.1"
   width="16"
   height="16"
   viewBox="0 0 16 16"
   id="svg2"
   inkscape:version="0.48.4 r9939"
   sodipodi:docname="SuspendedGroup.svg">
  <metadata
     id="metadata10">
    <rdf:RDF>
      <cc:Work
         rdf:about="">
        <dc:format>image/svg+xml</dc:format>
        <dc:type
           rdf:resource="http://purl.org/dc/dcmitype/StillImage" />
        <dc:title></dc:title>
      </cc:Work>
    </rdf:RDF>
  </metadata>
  <defs
     id="defs8" />
  <sodipodi:namedview
     pagecolor="#ffffff"
     bordercolor="#666666"
     borderopacity="1"
     objecttolerance="10"
     gridtolerance="10"
     guidetolerance="10"
     inkscape:pageopacity="0"
     inkscape:pageshadow="2"
     inkscape:window-width="1440"
     inkscape:window-height="837"
     id="namedview6"
     showgrid="false"
     inkscape:zoom="14.75"
     inkscape:cx="-3.6271186"
     inkscape:cy="8"
     inkscape:window-x="-8"
     inkscape:window-y="-8"
     inkscape:window-maximized="1"
     inkscape:current-layer="svg2" />
  <path
     d="M13.984 16h-10.984q-0.422 0-0.711-0.289t-0.289-0.711v-13.984q0-0.422 0.289-0.711t0.711-0.289h6v5.5q0 0.203 0.141 0.352t0.359 0.148h5.484v8.984q0 0.422-0.289 0.711t-0.711 0.289zM11.313 10h-1.313v-2.5q0-0.219-0.148-0.359t-0.352-0.141h-2q-0.203 0-0.352 0.141t-0.148 0.359v2.5h-1.359q-0.359 0-0.547 0.414t-0.031 0.586l1.391 1.391t1.328 1.313q0.266 0.281 0.656 0.281t0.656-0.281l2.797-2.703q0.219-0.219 0.016-0.609t-0.594-0.391zM10 0q0.406 0 0.688 0.281l4 4.016q0.297 0.297 0.297 0.719h-4.984v-5.016z"
     fill="#222222"
     id="path4"
     style="fill:#959595;fill-opacity:1" />
</svg>
