<?xml version="1.0" encoding="UTF-8" standalone="no"?>
<!-- Generated by IcoMoon.io -->

<svg
   xmlns:dc="http://purl.org/dc/elements/1.1/"
   xmlns:cc="http://creativecommons.org/ns#"
   xmlns:rdf="http://www.w3.org/1999/02/22-rdf-syntax-ns#"
   xmlns:svg="http://www.w3.org/2000/svg"
   xmlns="http://www.w3.org/2000/svg"
   xmlns:sodipodi="http://sodipodi.sourceforge.net/DTD/sodipodi-0.dtd"
   xmlns:inkscape="http://www.inkscape.org/namespaces/inkscape"
   version="1.1"
   width="16"
   height="16"
   viewBox="0 0 16 16"
   id="svg2"
   inkscape:version="0.48.4 r9939"
   sodipodi:docname="tab.svg">
  <metadata
     id="metadata10">
    <rdf:RDF>
      <cc:Work
         rdf:about="">
        <dc:format>image/svg+xml</dc:format>
        <dc:type
           rdf:resource="http://purl.org/dc/dcmitype/StillImage" />
      </cc:Work>
    </rdf:RDF>
  </metadata>
  <defs
     id="defs8" />
  <sodipodi:namedview
     pagecolor="#ffffff"
     bordercolor="#666666"
     borderopacity="1"
     objecttolerance="10"
     gridtolerance="10"
     guidetolerance="10"
     inkscape:pageopacity="0"
     inkscape:pageshadow="2"
     inkscape:window-width="1440"
     inkscape:window-height="837"
     id="namedview6"
     showgrid="false"
     inkscape:zoom="14.75"
     inkscape:cx="-3.6271186"
     inkscape:cy="8"
     inkscape:window-x="-8"
     inkscape:window-y="-8"
     inkscape:window-maximized="1"
     inkscape:current-layer="svg2" />
  <path
     d="M 14,16 2,16 C 1.448,16 0.97666667,15.804667 0.586,15.414 0.19533333,15.023333 0,14.552 0,14 L 0,4 0.75,1.562 C 0.896,1.114 1.2006667,0.74166667 1.664,0.445 2.1273333,0.14833333 2.6246667,0 3.156,0 l 5.688,0 c 0.5313333,0 1.0286667,0.14833333 1.492,0.445 0.463333,0.29666667 0.768,0.669 0.914,1.117 L 12,4 14,4 c 0.552,0 1.023333,0.1953333 1.414,0.586 C 15.804667,4.9766667 16,5.448 16,6 l 0,8 c 0,0.552 -0.195333,1.023333 -0.586,1.414 C 15.023333,15.804667 14.552,16 14,16 z M 14,6.5 C 14,6.3646667 13.950667,6.2473333 13.852,6.148 13.753333,6.0486667 13.636,5.9993333 13.5,6 L 2.5,6 C 2.3646667,6 2.2473333,6.0493333 2.148,6.148 2.0486667,6.2466667 1.9993333,6.364 2,6.5 l 0,7 c 0,0.135333 0.049333,0.252667 0.148,0.352 0.098667,0.09933 0.216,0.148667 0.352,0.148 l 11,0 c 0.135333,0 0.252667,-0.04933 0.352,-0.148 0.09933,-0.09867 0.148667,-0.216 0.148,-0.352 z"
     id="path4"
     inkscape:connector-curvature="0"
     style="fill:#222222;fill-opacity:1"
     sodipodi:nodetypes="ssssccssssccsssssssscsscsscsscs" />
</svg>
