<?xml version="1.0" encoding="UTF-8" standalone="no"?>
<!-- Generated by IcoMoon.io -->

<svg
   xmlns:dc="http://purl.org/dc/elements/1.1/"
   xmlns:cc="http://creativecommons.org/ns#"
   xmlns:rdf="http://www.w3.org/1999/02/22-rdf-syntax-ns#"
   xmlns:svg="http://www.w3.org/2000/svg"
   xmlns="http://www.w3.org/2000/svg"
   xmlns:sodipodi="http://sodipodi.sourceforge.net/DTD/sodipodi-0.dtd"
   xmlns:inkscape="http://www.inkscape.org/namespaces/inkscape"
   version="1.1"
   width="16"
   height="16"
   viewBox="0 0 16 16"
   id="svg2"
   inkscape:version="0.48.4 r9939"
   sodipodi:docname="windowGrey.svg">
  <metadata
     id="metadata10">
    <rdf:RDF>
      <cc:Work
         rdf:about="">
        <dc:format>image/svg+xml</dc:format>
        <dc:type
           rdf:resource="http://purl.org/dc/dcmitype/StillImage" />
        <dc:title></dc:title>
      </cc:Work>
    </rdf:RDF>
  </metadata>
  <defs
     id="defs8" />
  <sodipodi:namedview
     pagecolor="#ffffff"
     bordercolor="#666666"
     borderopacity="1"
     objecttolerance="10"
     gridtolerance="10"
     guidetolerance="10"
     inkscape:pageopacity="0"
     inkscape:pageshadow="2"
     inkscape:window-width="1440"
     inkscape:window-height="837"
     id="namedview6"
     showgrid="false"
     inkscape:zoom="29.5"
     inkscape:cx="4.8137193"
     inkscape:cy="7.2311565"
     inkscape:window-x="-8"
     inkscape:window-y="-8"
     inkscape:window-maximized="1"
     inkscape:current-layer="svg2" />
  <path
     d="M 14,16 2,16 C 1.448,16 0.97666667,15.804667 0.586,15.414 0.19533333,15.023333 0,14.552 0,14 L 0,2 C 0,1.448 0.19533333,0.97666667 0.586,0.586 0.97666667,0.19533333 1.448,0 2,0 l 12,0 c 0.552,0 1.023333,0.19533333 1.414,0.586 C 15.804667,0.97666667 16,1.448 16,2 l 0,12 c 0,0.552 -0.195333,1.023333 -0.586,1.414 C 15.023333,15.804667 14.552,16 14,16 z M 13.95891,2.5662142 c 0,-0.1353333 -0.04933,-0.2526667 -0.148,-0.352 -0.09867,-0.099333 -0.216,-0.1486667 -0.352,-0.148 l -1,0 c -0.135333,0 -0.252667,0.049333 -0.352,0.148 -0.09933,0.098667 -0.148667,0.216 -0.148,0.352 l 0,1 c 0,0.1353333 0.04933,0.2526667 0.148,0.352 0.09867,0.099333 0.216,0.1486667 0.352,0.148 l 1,0 c 0.135333,0 0.252667,-0.049333 0.352,-0.148 0.09933,-0.098667 0.148667,-0.216 0.148,-0.352 z m -6.0945032,0.00158 c 0,-0.1353333 -0.049333,-0.2526667 -0.148,-0.352 -0.098667,-0.099333 -0.216,-0.1486667 -0.352,-0.148 l -5,0 c -0.1353333,0 -0.2526667,0.049333 -0.352,0.148 -0.099333,0.098667 -0.1486667,0.216 -0.148,0.352 l 0,1 c 0,0.1353333 0.049333,0.2526667 0.148,0.352 0.098667,0.099333 0.216,0.1486667 0.352,0.148 l 5,0 c 0.135333,0 0.252667,-0.049333 0.352,-0.148 0.099333,-0.098667 0.148667,-0.216 0.148,-0.352 z M 14,5.5 C 14,5.3646667 13.950667,5.2473333 13.852,5.148 13.753333,5.0486667 13.636,4.9993333 13.5,5 L 2.5,5 C 2.3646667,5 2.2473333,5.0493333 2.148,5.148 2.0486667,5.2466667 1.9993333,5.364 2,5.5 l 0,8 c 0,0.135333 0.049333,0.252667 0.148,0.352 C 2.246667,13.95133 2.364,14.000667 2.5,14 l 11,0 c 0.135333,0 0.252667,-0.04933 0.352,-0.148 C 13.95133,13.75333 14.000667,13.636 14,13.5 z"
     id="path4"
     inkscape:connector-curvature="0"
     style="fill:#959595;fill-opacity:1"
     sodipodi:nodetypes="ssssssssssssssscsscsscsscssscsscsscsscssscsscsscsscs" />
  <rect
     style="fill:#959595;fill-opacity:1;stroke:none"
     id="rect3782"
     width="7.8305087"
     height="2.6779661"
     x="0.91525424"
     y="1.7288135" />
</svg>
